<?xml version="1.0" encoding="UTF-8"?>
<svg id="Layer_2" data-name="Layer 2" xmlns="http://www.w3.org/2000/svg" viewBox="0 0 1941.55 524.49">
  <defs>
    <style>
      .cls-1 {
        fill: #123c5d;
      }
    </style>
  </defs>
  <g id="Layer_1-2" data-name="Layer 1">
    <g>
      <g id="g5898">
        <path id="path5900" class="cls-1" d="M0,0H298.31c49.71,0,87.89,12.31,114.49,36.93,26.63,24.62,39.93,55.12,39.93,91.47,0,30.48-9.5,56.62-28.49,78.44-12.67,14.54-31.19,26.03-55.59,34.48,37.07,8.91,64.32,24.2,81.79,45.9,17.48,21.69,26.22,48.95,26.22,81.8,0,26.73-6.23,50.77-18.65,72.11-12.43,21.33-29.43,38.21-51,50.65-13.37,7.75-33.54,13.37-60.52,16.88-35.87,4.7-59.68,7.05-71.4,7.05H0V0ZM160.76,202.27h69.31c24.86,0,42.15-4.29,51.87-12.84,9.75-8.56,14.62-20.93,14.62-37.11,0-15.01-4.87-26.74-14.62-35.18-9.72-8.44-26.67-12.66-50.82-12.66h-70.35v97.8Zm0,202.62h81.26c27.43,0,46.78-4.86,58.04-14.6,11.26-9.73,16.9-22.8,16.9-39.22,0-15.24-5.58-27.5-16.71-36.75-11.15-9.27-30.66-13.89-58.59-13.89h-80.9v104.47Z"/>
      </g>
      <g id="g5902">
        <path id="path5904" class="cls-1" d="M823.86,0h159V307.24c0,30.45-4.75,59.25-14.24,86.3-9.5,27.06-24.39,50.75-44.67,71.03-20.28,20.25-41.57,34.51-63.85,42.68-30.96,11.49-68.13,17.24-111.51,17.24-25.09,0-52.47-1.75-82.13-5.28-29.68-3.51-54.48-10.49-74.4-20.9-19.94-10.44-38.17-25.27-54.71-44.47-16.54-19.24-27.85-39.03-33.95-59.43-9.84-32.8-14.77-61.88-14.77-87.18V0h159V314.57c0,28.11,7.8,50.07,23.4,65.9,15.59,15.8,37.22,23.72,64.9,23.72s48.95-7.8,64.55-23.36c15.6-15.6,23.39-37.68,23.39-66.26V0Z"/>
      </g>
      <path id="path5908" class="cls-1" d="M1315.9,430.56h-180.9l-25.15,85.14h-162.69L1140.98,0h173.83l193.77,515.7h-166.86l-25.82-85.14Zm-33.05-111.51l-56.92-185.38-56.34,185.38h113.27Z"/>
      <g id="g5918">
        <path id="path5920" class="cls-1" d="M1503.96,0h264.88c57.69,0,100.9,13.71,129.63,41.16,28.72,27.44,43.09,66.48,43.09,117.14s-15.64,92.75-46.96,122.07c-31.3,29.32-79.09,43.97-143.34,43.97h-87.24v191.37h-160.06V0Zm160.06,219.85h39.05c30.72,0,52.3-5.34,64.73-16,12.43-10.67,18.64-24.33,18.64-40.98s-5.39-29.9-16.18-41.16c-10.79-11.25-31.08-16.89-60.86-16.89h-45.38v115.03Z"/>
      </g>
    </g>
  </g>
</svg>